Coordinates
version=1
nRows=29
nColumns=22
inDegrees=yes

Units are S.I. units (second, meters, Newtons, ...)
If the header above contains a line with 'inDegrees', this indicates whether rotational values are in degrees (yes) or radians (no).

endheader
time	pelvis_tilt	pelvis_list	pelvis_rotation	pelvis_tx	pelvis_ty	pelvis_tz	hip_flexion_r	hip_adduction_r	hip_rotation_r	knee_angle_r	ankle_angle_r	subtalar_angle_r	hip_flexion_l	hip_adduction_l	hip_rotation_l	knee_angle_l	ankle_angle_l	subtalar_angle_l	lumbar_extension	lumbar_bending	lumbar_rotation
      5.12000000	      5.70528253	     -1.92996087	      5.38907683	     -1.37109273	      0.95719094	     -0.05095107	     -2.81365381	      1.15855014	    -12.45920776	    -12.74826185	     11.85380778	     -3.06925381	      0.08808626	     -3.92817452	     -7.57453371	    -15.93359549	     18.53155341	     -7.49694683	    -14.16802144	      3.13654887	     -8.54084194
      5.13000000	      5.71741629	     -1.94267071	      5.40486999	     -1.37137728	      0.95719716	     -0.05120538	     -2.80125486	      1.15154794	    -12.51764426	    -12.76223491	     11.77811923	     -3.04278667	      0.11127120	     -3.92174951	     -7.53840692	    -15.96338717	     18.52125260	     -7.69840163	    -14.16075782	      3.13599442	     -8.55611226
      5.14000000	      5.73299741	     -1.95368380	      5.39772384	     -1.37161396	      0.95720164	     -0.05139787	     -2.80162966	      1.14820884	    -12.51852205	    -12.76116259	     11.77844436	     -3.04154278	      0.11237781	     -3.91747073	     -7.53145071	    -15.97111654	     18.52172000	     -7.70347971	    -14.15360467	      3.12762567	     -8.55417845
      5.15000000	      5.75949399	     -1.94921327	      5.42001803	     -1.37186111	      0.95723037	     -0.05164088	     -2.81290585	      1.12638889	    -12.58152593	    -12.76994391	     11.73773553	     -3.00648544	      0.10814854	     -3.89463353	     -7.48715687	    -15.98335232	     18.51094461	     -7.86330646	    -14.16626585	      3.11076471	     -8.58185816
      5.16000000	      5.77305037	     -1.95947447	      5.41702779	     -1.37206359	      0.95723403	     -0.05180772	     -2.81340471	      1.12559058	    -12.58194589	    -12.76947301	     11.73706638	     -3.00559318	      0.10740910	     -3.89317335	     -7.48454862	    -15.98671642	     18.51086316	     -7.86588434	    -14.15664133	      3.10158905	     -8.58247940
      5.17000000	      5.78660342	     -1.96868053	      5.41457934	     -1.37224849	      0.95724067	     -0.05196855	     -2.81569419	      1.12402752	    -12.58442645	    -12.76878384	     11.73352091	     -3.00436044	      0.10637051	     -3.89148010	     -7.48267808	    -15.99135325	     18.50972992	     -7.86983263	    -14.14595653	      3.09076535	     -8.58625379
      5.18000000	      5.80137085	     -1.95999145	      5.43120399	     -1.37242373	      0.95726128	     -0.05215646	     -2.83648811	      1.10493792	    -12.61839593	    -12.74051614	     11.68191664	     -2.98959263	      0.11076500	     -3.87284117	     -7.48522100	    -16.00643245	     18.49644042	     -7.91430221	    -14.13810816	      3.06380219	     -8.63563635
      5.19000000	      5.81474266	     -1.97051204	      5.42556995	     -1.37258383	      0.95727287	     -0.05229682	     -2.83953276	      1.10553148	    -12.62059387	    -12.74184987	     11.67864594	     -2.98805722	      0.10757412	     -3.87378049	     -7.48128271	    -16.00975562	     18.49520791	     -7.91779942	    -14.12507834	      3.05506013	     -8.64048234
      5.20000000	      5.82730248	     -1.98036932	      5.41816105	     -1.37273642	      0.95728686	     -0.05242575	     -2.84405307	      1.10559549	    -12.62400774	    -12.73826598	     11.67207317	     -2.98589327	      0.10479286	     -3.87465196	     -7.47890848	    -16.01346814	     18.49355051	     -7.92251250	    -14.11086392	      3.04372469	     -8.65162879
      5.21000000	      5.84687569	     -1.98529547	      5.44964549	     -1.37288896	      0.95733044	     -0.05261661	     -2.88812961	      1.10889489	    -12.65527396	    -12.67606407	     11.56169357	     -2.93819274	      0.10495058	     -3.86983578	     -7.44168958	    -16.02423667	     18.47597250	     -8.00803952	    -14.10688886	      3.03851179	     -8.73378895
      5.22000000	      5.85640369	     -1.99317970	      5.44437279	     -1.37300431	      0.95734623	     -0.05275318	     -2.89881842	      1.10784735	    -12.65341827	    -12.65953586	     11.55334316	     -2.92447383	      0.09802745	     -3.86850990	     -7.45320112	    -16.01673531	     18.48140812	     -8.02577858	    -14.08403978	      3.02968252	     -8.76618588
      5.23000000	      5.86760139	     -2.00341609	      5.43104064	     -1.37314848	      0.95736196	     -0.05285811	     -2.90163672	      1.10854509	    -12.65388250	    -12.65600920	     11.55018864	     -2.92240908	      0.09641208	     -3.86995721	     -7.45104988	    -16.02189335	     18.48087150	     -8.02835542	    -14.07311820	      3.01850513	     -8.77626833
      5.24000000	      5.87443969	     -2.00767891	      5.43116024	     -1.37327267	      0.95737768	     -0.05298813	     -2.91608569	      1.10698058	    -12.63862869	    -12.62534444	     11.52030480	     -2.90748777	      0.09915842	     -3.86663357	     -7.46950394	    -16.02447372	     18.47818852	     -8.04783621	    -14.05639073	      3.00703501	     -8.84277014
      5.25000000	      5.88417469	     -2.01730993	      5.42953774	     -1.37340551	      0.95739637	     -0.05310606	     -2.92773238	      1.11076855	    -12.62809885	    -12.60323042	     11.48518442	     -2.88686023	      0.10234247	     -3.86893084	     -7.47342883	    -16.03317722	     18.47296742	     -8.07209651	    -14.04768891	      3.00044817	     -8.89019287
      5.26000000	      5.89263955	     -2.02733554	      5.42478562	     -1.37352616	      0.95741098	     -0.05321626	     -2.93220777	      1.11309536	    -12.62389316	    -12.59358663	     11.46225148	     -2.86818348	      0.10153418	     -3.87130693	     -7.47995019	    -16.03434982	     18.47160646	     -8.09203691	    -14.03822745	      2.99454146	     -8.92851155
      5.27000000	      5.90118949	     -2.03669552	      5.41483243	     -1.37363874	      0.95742319	     -0.05330992	     -2.93257522	      1.11376797	    -12.62426318	    -12.59250713	     11.45910245	     -2.86538354	      0.10007213	     -3.87294446	     -7.47956763	    -16.03777345	     18.47103468	     -8.09493723	    -14.03076766	      2.98448323	     -8.93912525
      5.28000000	      5.90661813	     -2.04040226	      5.41275894	     -1.37374885	      0.95743270	     -0.05341622	     -2.93177265	      1.10925683	    -12.61461805	    -12.59016984	     11.43819575	     -2.85012583	      0.10082550	     -3.87069642	     -7.50421192	    -16.03635861	     18.46866250	     -8.11204626	    -14.02342197	      2.97456655	     -9.00409130
      5.29000000	      5.91113889	     -2.04353522	      5.40911282	     -1.37384549	      0.95744043	     -0.05351046	     -2.93221648	      1.10441004	    -12.61299545	    -12.58448338	     11.41527322	     -2.82918544	      0.10588056	     -3.86850124	     -7.52263297	    -16.04517941	     18.46517798	     -8.13382885	    -14.01668092	      2.95927770	     -9.04904329
      5.30000000	      5.91713715	     -2.05237403	      5.39844060	     -1.37393343	      0.95744732	     -0.05358015	     -2.93084825	      1.10591954	    -12.61471009	    -12.58349324	     11.41252431	     -2.82611410	      0.10499337	     -3.87181040	     -7.52304275	    -16.04836019	     18.46474009	     -8.13688024	    -14.01180960	      2.94674681	     -9.05817042
      5.31000000	      5.91942572	     -2.05403577	      5.39172093	     -1.37400737	      0.95745223	     -0.05366083	     -2.92772586	      1.09900813	    -12.61012304	    -12.58343283	     11.39024595	     -2.80712264	      0.10828417	     -3.87027410	     -7.55809541	    -16.05309071	     18.46458764	     -8.15727857	    -14.00277882	      2.93074002	     -9.11236267
      5.32000000	      5.92446342	     -2.06256152	      5.37901903	     -1.37407222	      0.95745747	     -0.05371663	     -2.92745280	      1.10082390	    -12.61218332	    -12.58164765	     11.38732931	     -2.80404735	      0.10728442	     -3.87414559	     -7.55884460	    -16.05861751	     18.46437546	     -8.16035153	    -13.99707989	      2.91631187	     -9.11949294
      5.33000000	      5.92399677	     -2.06169381	      5.36550100	     -1.37411564	      0.95745676	     -0.05377242	     -2.92821846	      1.09257538	    -12.60549731	    -12.57027150	     11.35655439	     -2.77721309	      0.11643528	     -3.87283771	     -7.61082216	    -16.07649769	     18.46797835	     -8.18905233	    -13.98292118	      2.89277733	     -9.16173680
      5.34000000	      5.92868038	     -2.07111733	      5.34962456	     -1.37415671	      0.95746056	     -0.05381555	     -2.92897304	      1.09495719	    -12.60725536	    -12.56895952	     11.35456288	     -2.77464294	      0.11408126	     -3.87848849	     -7.60927778	    -16.08305713	     18.46802776	     -8.19151364	    -13.97618733	      2.87891057	     -9.16623387
      5.35000000	      5.92648627	     -2.07585077	      5.32308533	     -1.37416742	      0.95745587	     -0.05383135	     -2.93434585	      1.09549525	    -12.58925225	    -12.54455103	     11.32036849	     -2.74040388	      0.12405393	     -3.88429011	     -7.67078279	    -16.10698771	     18.47942739	     -8.22777168	    -13.95794167	      2.85528094	     -9.18734930
      5.36000000	      5.93189778	     -2.08648564	      5.30158465	     -1.37417727	      0.95745811	     -0.05385683	     -2.93697031	      1.09936774	    -12.59002767	    -12.54483058	     11.31849434	     -2.73732421	      0.11921328	     -3.89110174	     -7.66670799	    -16.11649858	     18.47982232	     -8.23056586	    -13.94843663	      2.84177834	     -9.19142505
      5.37000000	      5.93633246	     -2.09690008	      5.27690826	     -1.37417616	      0.95745881	     -0.05387226	     -2.94038542	      1.10358790	    -12.59017831	    -12.54185422	     11.31562056	     -2.73363999	      0.11462508	     -3.89761521	     -7.66602311	    -16.12665164	     18.48106986	     -8.23427729	    -13.93877130	      2.82726255	     -9.19803031
      5.38000000	      5.93700213	     -2.10825306	      5.23697013	     -1.37414271	      0.95745600	     -0.05385482	     -2.96015386	      1.11452456	    -12.54194168	    -12.49706861	     11.27806632	     -2.69146778	      0.11920992	     -3.91298148	     -7.74216697	    -16.15440991	     18.50793239	     -8.28025406	    -13.92255470	      2.81134173	     -9.21475533
      5.39000000	      5.94302761	     -2.11944878	      5.21026683	     -1.37411046	      0.95745632	     -0.05386541	     -2.96523994	      1.11929310	    -12.54263328	    -12.49930757	     11.27625411	     -2.68850676	      0.11163999	     -3.91985718	     -7.73524403	    -16.16666775	     18.50835306	     -8.28287980	    -13.91121411	      2.79925078	     -9.21888761
      5.40000000	      5.94766810	     -2.13035490	      5.18032788	     -1.37407939	      0.95745416	     -0.05387005	     -2.97026866	      1.12339860	    -12.54305134	    -12.49802228	     11.27406588	     -2.68539459	      0.10550753	     -3.92625404	     -7.73068340	    -16.17805169	     18.50954532	     -8.28581021	    -13.90239733	      2.78768665	     -9.22601711
